<svg xmlns="http://www.w3.org/2000/svg" xmlns:xlink="http://www.w3.org/1999/xlink" viewBox="0,0,256,256" width="25px" height="25px" fill-rule="nonzero"><g fill="#f9f9f9" fill-rule="nonzero" stroke="none" stroke-width="1" stroke-linecap="butt" stroke-linejoin="miter" stroke-miterlimit="10" stroke-dasharray="" stroke-dashoffset="0" font-family="none" font-weight="none" font-size="none" text-anchor="none" style="mix-blend-mode: normal"><g transform="scale(5.12,5.12)"><path d="M10.5,12c-0.82,0 -1.58023,0.21961 -2.24023,0.59961c0,0 14.43731,14.13077 14.57031,14.25977c0.133,0.129 1.07678,1.08008 2.30078,1.08008c1.285,0 2.26783,-1.05008 2.29883,-1.08008c0.031,-0.03 14.48047,-14.14844 14.48047,-14.14844c-0.7,-0.45 -1.52016,-0.71094 -2.41016,-0.71094zM7.35938,13.2793c-0.84,0.82 -1.35937,1.9607 -1.35937,3.2207v17c0,1.34 0.58953,2.53937 1.51953,3.35938l12.16016,-11.59961zM42.75977,13.41016l-12.17969,11.84961l12.0293,11.48047c0.86,-0.81 1.39063,-1.97023 1.39063,-3.24023v-17c0,-1.2 -0.47023,-2.27984 -1.24023,-3.08984zM20.44922,26l-12,11.50977c0.61,0.31 1.31078,0.49023 2.05078,0.49023h29c0.81,0 1.5707,-0.20984 2.2207,-0.58984l-11.91016,-11.41016c-1.272,1.241 -2.59969,3 -4.67969,3c-2.007,0 -3.28464,-1.636 -4.68164,-3z"></path></g></g></svg>